<svg xmlns="http://www.w3.org/2000/svg" version="1.0" width="600.000000pt" height="181.000000pt" viewBox="0 0 600.000000 181.000000" preserveAspectRatio="xMidYMid meet">

<g transform="translate(0.000000,181.000000) scale(0.100000,-0.100000)" fill="#000000" stroke="none">
<path d="M489 1312 c-115 -43 -199 -119 -253 -232 -26 -55 -32 -79 -34 -157 -4 -106 11 -167 63 -249 99 -155 297 -229 482 -180 61 16 165 83 207 134 53 63 91 155 98 236 l3 38 -65 5 c-36 2 -84 2 -106 -2 -39 -5 -42 -9 -48 -43 -8 -50 -65 -124 -112 -148 -27 -13 -60 -19 -105 -19 -55 0 -72 5 -107 27 -95 63 -126 193 -69 290 30 52 93 95 151 105 l36 6 0 103 0 104 -47 -1 c-27 0 -69 -8 -94 -17z"/>
<path d="M660 1251 c0 -188 84 -274 276 -284 l90 -4 0 183 -1 184 -182 0 -183 0 0 -79z"/>
<path d="M5205 1309 c-34 -20 -45 -41 -45 -90 0 -39 5 -51 26 -68 29 -23 103 -29 147 -12 50 19 60 117 17 156 -24 22 -116 31 -145 14z"/>
<path d="M3280 905 l0 -405 100 0 100 0 0 117 c0 64 3 113 8 109 4 -4 23 -55 43 -114 l36 -107 111 -3 c62 -1 112 1 112 6 0 5 -25 72 -55 148 -30 77 -55 144 -55 149 0 6 27 73 60 150 33 77 60 143 60 148 0 4 -48 6 -107 5 l-107 -3 -43 -110 c-23 -60 -44 -114 -46 -120 -2 -5 -8 90 -12 213 l-8 222 -98 0 -99 0 0 -405z"/>
<path d="M4038 1287 c-86 -25 -142 -82 -175 -177 -27 -80 -26 -341 1 -420 41 -119 98 -172 202 -191 56 -10 87 -23 217 -92 39 -21 76 -32 116 -35 l58 -4 6 38 c4 22 7 57 7 80 l0 41 -71 6 c-39 3 -74 8 -77 11 -3 3 6 15 20 26 35 27 78 102 94 164 17 62 18 255 3 328 -34 159 -113 227 -273 234 -49 2 -100 -1 -128 -9z m159 -202 c32 -22 43 -75 43 -195 -1 -182 -17 -220 -91 -220 -73 0 -98 49 -99 190 0 118 16 202 41 223 26 21 77 22 106 2z"/>
<path d="M1424 1279 c-3 -6 -24 -608 -24 -716 l0 -63 95 0 95 0 0 206 c0 113 4 203 8 200 5 -3 24 -95 43 -206 l34 -200 101 0 101 0 17 92 c48 265 59 318 67 318 5 0 9 -92 9 -205 l0 -205 95 0 95 0 -6 228 c-3 125 -9 301 -13 392 l-6 165 -134 -2 c-73 -1 -136 -4 -139 -8 -3 -3 -21 -96 -39 -207 -32 -190 -38 -218 -46 -207 -2 2 -19 96 -38 209 l-35 205 -138 5 c-76 3 -140 2 -142 -1z"/>
<path d="M4613 1283 l-63 -4 0 -390 0 -391 203 4 c198 3 203 4 247 30 69 40 95 93 94 193 0 91 -15 128 -66 169 l-33 26 23 15 c81 57 82 248 2 305 -62 44 -173 56 -407 43z m238 -200 c12 -32 12 -90 -1 -114 -8 -14 -21 -19 -50 -19 l-40 0 0 78 c0 43 2 81 5 83 2 3 21 3 40 1 27 -3 39 -11 46 -29z m-1 -273 c16 -16 20 -33 20 -79 0 -72 -15 -91 -71 -91 l-39 0 0 95 0 95 35 0 c22 0 43 -8 55 -20z"/>
<path d="M5506 1189 c-3 -17 -6 -44 -6 -60 0 -26 -3 -29 -35 -29 l-35 0 0 -80 0 -80 30 0 30 0 0 -176 c0 -201 8 -231 67 -259 28 -14 56 -16 129 -13 51 2 95 6 97 8 2 3 7 40 10 83 l5 77 -48 0 c-62 0 -64 6 -55 161 l8 119 47 0 47 0 7 53 c13 108 13 107 -49 107 l-54 0 -3 58 -3 57 -91 3 -91 3 -7 -32z"/>
<path d="M2399 1105 c-62 -20 -113 -77 -135 -151 -21 -75 -16 -269 10 -329 40 -93 117 -135 248 -135 119 0 192 51 224 157 18 58 21 263 5 312 -18 58 -61 109 -109 132 -58 29 -177 35 -243 14z m152 -182 c6 -16 9 -76 7 -140 -4 -129 -16 -155 -65 -137 -35 12 -46 58 -41 180 4 102 15 124 59 124 23 0 32 -6 40 -27z"/>
<path d="M2973 1096 c-61 -29 -97 -78 -126 -176 -44 -147 0 -335 93 -396 51 -34 142 -43 228 -24 l55 12 -7 70 c-3 39 -9 75 -12 80 -4 6 -30 7 -63 3 -85 -9 -95 2 -99 112 -6 143 24 181 118 151 58 -19 56 -22 65 90 l7 80 -51 11 c-84 18 -150 14 -208 -13z"/>
<path d="M5166 1069 c-3 -17 -6 -152 -6 -300 l0 -269 105 0 105 0 0 300 0 300 -99 0 -98 0 -7 -31z"/>
</g>
</svg>